<svg xmlns="http://www.w3.org/2000/svg" viewBox="0 0 814 1000" aria-hidden="true">
  <path fill="#ffffff" d="M788.1 340.9c-5.8 4.5-108.2 62.2-108.2 190.5 0 148.4 130.3 200.9 134.2 202.2-.6 3.2-20.7 71.9-68.7 141.9-42.8 61.6-87.5 123.1-155.5 123.1s-85.5-39.5-164-39.5c-76.5 0-103.7 40.8-165.9 40.8-63.3 0-108.2-57.8-155.5-123.6C46.7 790.7 0 663 0 541.3c0-194.4 126.4-297.5 250.8-297.5 66.1 0 121.2 43.4 162.7 43.4 39.5 0 101.1-46 176.3-46 28.2 0 129.5 2.6 196.3 99.4l-1.3.8zM554.1 159.4c31.1-36.9 53.1-88.1 53.1-139.3 0-7.1-.6-14.3-1.9-20.1-50.6 1.9-110.8 33.7-147.1 76.8-28.2 32.4-54.4 83.6-54.4 135.5 0 7.8 1.3 15.6 1.9 18.1 3.2.6 8.4 1.3 13.6 1.3 45.2 0 102.5-30.4 138.8-72.3z"/>
</svg>
